<?xml version="1.0" encoding="utf-8"?>
<!-- Generator: Adobe Illustrator 23.0.5, SVG Export Plug-In . SVG Version: 6.00 Build 0)  -->
<svg version="1.1" id="Capa_1" xmlns="http://www.w3.org/2000/svg" xmlns:xlink="http://www.w3.org/1999/xlink" x="0px" y="0px"
	 viewBox="0 0 142 50" style="enable-background:new 0 0 142 50;" xml:space="preserve">
<style type="text/css">
	.st0{enable-background:new    ;}
</style>
<g>
	<g>
		<polygon points="6.9,6.7 10.7,6.7 10.7,0.6 0.3,0.6 0.3,49.1 10.7,49.1 10.7,43.1 6.9,43.1 		"/>
		<polygon points="135.1,6.7 131.3,6.7 131.3,0.6 141.7,0.6 141.7,49.1 131.3,49.1 131.3,43.1 135.1,43.1 		"/>
		<path d="M113.1,8c0.6,0,1.2,0,1.8,0c1.8,0,3,0.1,3.7,0.4c0.7,0.2,1.2,0.6,1.6,1.2c0.4,0.6,0.6,1.2,0.6,2c0,1.3-0.4,2.2-1.2,2.8
			c-0.8,0.6-2.2,0.8-4.4,0.8c-0.7,0-1.4,0-2.1,0C113.1,12.7,113.1,10.4,113.1,8z M106.4,1.5c0,11.6,0,23.2,0,34.8c2.2,0,4.4,0,6.6,0
			c0-4.9,0-9.8,0-14.8c0.2,0,0.4,0,0.6,0c2.6,4.9,5.2,9.8,7.8,14.8c2.4,0,4.8,0,7.2,0c-2.8-5.2-5.5-10.3-8.2-15.5
			c2.2-0.8,3.9-2,4.9-3.5c1.1-1.6,1.7-3.5,1.7-5.8c0-2.2-0.5-4.1-1.5-5.7c-1-1.6-2.3-2.7-3.9-3.4c-1.6-0.7-4.4-1-8.2-1
			C111.1,1.5,108.8,1.5,106.4,1.5z"/>
		<path d="M97.4,7.2c-2.1-2.3-4.3-3.9-6.5-4.9c-2.6-1.1-5.5-1.7-8.5-1.7c-5.8,0-10.5,2-14.1,6.1c-3.1,3.4-4.6,7.4-4.6,12
			c0,3.4,0.8,6.5,2.5,9.4c1.7,2.9,3.9,5.2,6.7,6.7c2.8,1.6,6.1,2.3,9.7,2.3c3.4,0,6.3-0.7,8.8-2.2c2.5-1.4,4.6-3.5,6.1-6.3
			c1.6-2.7,2.4-5.6,2.4-8.7c0-0.5,0-1-0.1-1.5c-5.8,0-11.7,0-17.5,0c0,2.1,0,4.1,0,6.2c3.4,0,6.7,0,10.1,0c-1,2-2.2,3.6-3.8,4.5
			c-1.6,1-3.5,1.4-5.8,1.4c-3.5,0-6.5-1.2-8.9-3.5c-2.4-2.3-3.6-5.2-3.6-8.6c0-3.3,1.2-6,3.5-8.3c2.3-2.3,5.2-3.4,8.6-3.4
			c3.9,0,7.4,1.6,10.3,4.7C94.3,10.3,95.9,8.7,97.4,7.2z"/>
		<polygon points="39.2,1.5 39.2,8.1 50.6,8.1 38.2,36.3 59.5,36.3 59.5,30 47.8,30 60.3,1.5 		"/>
		<polygon points="15.9,1.5 15.9,36.3 34.9,36.3 34.9,29.8 22.4,29.8 22.4,20.7 34.9,20.7 34.9,14.3 22.4,14.3 22.4,8 34.9,8 
			34.9,1.5 		"/>
	</g>
	<g class="st0">
		<path d="M15.5,40.5h4.8v1.6h-3.1v1.6h3.1v1.6h-3.1v2.3h3.1v1.6h-4.8V40.5z"/>
		<path d="M21.4,40.5h5.3l-3.1,7.2h2.9v1.6h-5.4l3.1-7.1h-2.9V40.5z"/>
		<path d="M28,40.5h4.8v1.6h-3.1v1.6h3.1v1.6h-3.1v2.3h3.1v1.6H28V40.5z"/>
		<path d="M41.9,48l1.5,2h-2l-0.8-1c-0.6,0.4-1.4,0.5-2.1,0.5c-1.3,0-2.4-0.5-3.3-1.4c-0.9-0.9-1.3-2-1.3-3.2c0-0.8,0.2-1.6,0.6-2.3
			s1-1.3,1.7-1.7c0.7-0.4,1.5-0.6,2.3-0.6c1.2,0,2.3,0.5,3.2,1.3s1.3,2,1.3,3.3C43,46.1,42.6,47.2,41.9,48z M40.8,46.7
			c0.4-0.5,0.5-1.1,0.5-1.7c0-0.8-0.3-1.5-0.8-2.1c-0.6-0.6-1.2-0.9-2-0.9c-0.8,0-1.5,0.3-2.1,0.8c-0.6,0.6-0.8,1.3-0.8,2.2
			c0,1,0.3,1.7,1,2.3c0.5,0.4,1.2,0.7,1.9,0.7c0.4,0,0.8-0.1,1.1-0.2l-1.6-2h2L40.8,46.7z"/>
		<path d="M44.5,40.5h1.7v5.7c0,0.5,0,0.8,0.1,1c0.1,0.2,0.2,0.4,0.4,0.5c0.2,0.1,0.4,0.2,0.7,0.2c0.3,0,0.5-0.1,0.8-0.2
			c0.2-0.1,0.4-0.3,0.4-0.5c0.1-0.2,0.1-0.6,0.1-1.2v-5.5h1.7v5.2c0,0.9,0,1.5-0.1,1.8c-0.1,0.3-0.3,0.7-0.6,1s-0.6,0.6-1,0.7
			c-0.4,0.2-0.8,0.2-1.3,0.2c-0.6,0-1.2-0.1-1.7-0.4c-0.5-0.3-0.8-0.7-1-1.1c-0.2-0.4-0.3-1.2-0.3-2.2V40.5z"/>
		<path d="M52.3,40.5H54v8.8h-1.7V40.5z"/>
		<path d="M55.9,40.5h4.8v1.6h-3.1v1.6h3.1v1.6h-3.1v2.3h3.1v1.6h-4.8V40.5z"/>
		<path d="M62.2,40.5h1.7v7.2h2.4v1.6h-4.1V40.5z"/>
		<path d="M79.1,42l-1.2,1.2c-0.7-0.8-1.6-1.2-2.6-1.2c-0.9,0-1.6,0.3-2.2,0.9c-0.6,0.6-0.9,1.3-0.9,2.1c0,0.8,0.3,1.6,0.9,2.2
			c0.6,0.6,1.4,0.9,2.2,0.9c0.6,0,1.1-0.1,1.5-0.4c0.4-0.2,0.7-0.6,1-1.1h-2.5v-1.6h4.4l0,0.4c0,0.8-0.2,1.5-0.6,2.2
			c-0.4,0.7-0.9,1.2-1.5,1.6c-0.6,0.4-1.4,0.5-2.2,0.5c-0.9,0-1.7-0.2-2.4-0.6s-1.3-1-1.7-1.7c-0.4-0.7-0.6-1.5-0.6-2.4
			c0-1.2,0.4-2.2,1.2-3c0.9-1,2.1-1.5,3.6-1.5c0.8,0,1.5,0.1,2.1,0.4C78,41,78.6,41.4,79.1,42z"/>
		<path d="M81.4,40.5h1.8c1,0,1.7,0.1,2.1,0.3s0.7,0.5,1,0.9c0.3,0.4,0.4,0.9,0.4,1.4c0,0.6-0.1,1.1-0.4,1.4s-0.7,0.7-1.3,0.9
			l2.1,3.9h-1.8l-2-3.7H83v3.7h-1.7V40.5z M83,44h0.5c0.5,0,0.9-0.1,1.1-0.2s0.3-0.4,0.3-0.7c0-0.2,0-0.4-0.1-0.5
			c-0.1-0.1-0.2-0.2-0.4-0.3c-0.2-0.1-0.5-0.1-0.9-0.1H83V44z"/>
		<path d="M91,40.5h1.7l3.4,8.8h-1.7l-0.7-1.8h-3.6l-0.7,1.8h-1.7L91,40.5z M91.9,42.9l-1.2,3H93L91.9,42.9z"/>
		<path d="M97.4,40.5H99l3.8,5.8v-5.8h1.7v8.8h-1.6L99,43.6v5.8h-1.7V40.5z"/>
		<path d="M106.4,40.5h2c1.3,0,2.2,0.2,2.8,0.5s1.1,0.8,1.5,1.5c0.4,0.7,0.6,1.5,0.6,2.5c0,0.7-0.1,1.3-0.3,1.9
			c-0.2,0.6-0.5,1-0.9,1.4s-0.8,0.6-1.3,0.8c-0.5,0.1-1.3,0.2-2.4,0.2h-2V40.5z M108.1,42.1v5.5h0.8c0.8,0,1.3-0.1,1.7-0.3
			c0.3-0.2,0.6-0.5,0.8-0.9s0.3-0.9,0.3-1.5c0-0.9-0.3-1.7-0.8-2.2c-0.5-0.5-1.2-0.7-2.3-0.7H108.1z"/>
		<path d="M115.9,37.5h1.9l-2.2,2.3h-1.2L115.9,37.5z M114.8,40.5h1.7v8.8h-1.7V40.5z"/>
		<path d="M121.1,40.5h1.7l3.4,8.8h-1.7l-0.7-1.8h-3.6l-0.7,1.8h-1.7L121.1,40.5z M121.9,42.9l-1.2,3h2.3L121.9,42.9z"/>
	</g>
</g>
</svg>
